<svg xmlns="http://www.w3.org/2000/svg" xmlns:xlink="http://www.w3.org/1999/xlink" width="2560" zoomAndPan="magnify" viewBox="0 0 1920 1049.999947" height="1400" preserveAspectRatio="xMidYMid meet" version="1.0"><defs><g/><clipPath id="7434347659"><path d="M 453 224 L 914 224 L 914 576 L 453 576 Z M 453 224 " clip-rule="nonzero"/></clipPath><clipPath id="c0971ab97f"><path d="M 428.363281 348.980469 L 720.839844 120.324219 L 972.59375 442.34375 L 680.117188 671 Z M 428.363281 348.980469 " clip-rule="nonzero"/></clipPath><clipPath id="41da0eb675"><path d="M 428.363281 348.980469 L 720.839844 120.324219 L 972.59375 442.34375 L 680.117188 671 Z M 428.363281 348.980469 " clip-rule="nonzero"/></clipPath><clipPath id="e5051b9168"><rect x="0" width="1897" y="0" height="501"/></clipPath></defs><g clip-path="url(#7434347659)"><g clip-path="url(#c0971ab97f)"><g clip-path="url(#41da0eb675)"><path fill="#023c40" d="M 645.363281 386.066406 C 638.023438 414.484375 655.183594 443.585938 683.605469 450.917969 C 697.378906 454.472656 711.703125 452.449219 723.953125 445.226562 C 736.203125 438.007812 744.902344 426.453125 748.457031 412.671875 C 755.789062 384.246094 738.628906 355.160156 710.210938 347.824219 C 696.4375 344.265625 682.113281 346.289062 669.863281 353.511719 C 657.625 360.734375 648.917969 372.296875 645.363281 386.066406 Z M 639.847656 300.617188 L 663.175781 345.492188 C 663.652344 345.195312 664.132812 344.902344 664.617188 344.613281 C 667.074219 343.164062 669.605469 341.882812 672.195312 340.796875 L 648.875 295.929688 C 648.933594 295.882812 649.003906 295.835938 649.066406 295.789062 C 653.90625 292.007812 657.574219 286.675781 659.230469 280.273438 C 663.207031 264.851562 653.894531 249.0625 638.472656 245.082031 C 623.046875 241.105469 607.265625 250.414062 603.28125 265.839844 C 599.304688 281.265625 608.617188 297.054688 624.039062 301.03125 C 629.441406 302.421875 634.882812 302.179688 639.847656 300.617188 Z M 636.707031 378.960938 C 636.207031 380.449219 635.75 381.957031 635.355469 383.492188 C 634.898438 385.269531 634.523438 387.046875 634.222656 388.820312 L 527.398438 361.902344 C 524.914062 368.160156 520.847656 373.597656 515.542969 377.746094 C 514.21875 378.777344 512.832031 379.722656 511.355469 380.589844 C 502.585938 385.765625 492.316406 387.214844 482.449219 384.664062 C 472.589844 382.125 464.308594 375.890625 459.136719 367.113281 C 453.957031 358.34375 452.507812 348.074219 455.050781 338.214844 C 457.140625 330.105469 461.726562 323.066406 468.167969 317.945312 L 468.730469 317.507812 C 469.960938 316.566406 471.257812 315.691406 472.609375 314.894531 C 481.386719 309.71875 491.648438 308.265625 501.515625 310.816406 C 520.132812 315.617188 531.992188 333.457031 529.867188 352.046875 Z M 643.285156 433.441406 L 614.25 455.335938 C 609.570312 450.582031 603.59375 446.996094 596.671875 445.214844 C 586.800781 442.671875 576.542969 444.117188 567.765625 449.292969 C 558.996094 454.457031 552.753906 462.746094 550.21875 472.613281 C 544.960938 492.972656 557.25 513.8125 577.613281 519.070312 C 587.476562 521.617188 597.742188 520.164062 606.515625 514.992188 C 607.980469 514.128906 609.375 513.175781 610.699219 512.144531 C 617.273438 507.003906 621.953125 499.878906 624.074219 491.671875 C 626.628906 481.761719 625.027344 471.742188 620.367188 463.457031 L 649.40625 441.5625 C 647.140625 439.019531 645.101562 436.300781 643.285156 433.441406 Z M 726.90625 455.429688 L 772.019531 525.597656 C 768.089844 529.226562 765.121094 533.980469 763.695312 539.535156 C 759.710938 554.964844 769.027344 570.742188 784.453125 574.726562 C 793.480469 577.054688 802.644531 574.828125 809.480469 569.484375 C 814.3125 565.707031 817.992188 560.367188 819.636719 553.972656 C 821.558594 546.5 820.464844 538.730469 816.546875 532.082031 C 812.625 525.4375 806.355469 520.710938 798.878906 518.78125 C 792.5625 517.152344 786.171875 517.757812 780.570312 520.09375 L 735.460938 449.933594 C 733.46875 451.445312 731.386719 452.851562 729.207031 454.136719 C 728.445312 454.578125 727.675781 455.007812 726.90625 455.429688 Z M 760.246094 404.863281 C 760.542969 401.445312 760.5625 398.042969 760.3125 394.699219 L 837.617188 395.191406 C 837.8125 393.792969 838.078125 392.386719 838.449219 390.992188 C 840.996094 381.125 847.234375 372.84375 856.003906 367.664062 C 864.78125 362.492188 875.042969 361.039062 884.90625 363.585938 C 905.261719 368.835938 917.558594 389.679688 912.300781 410.042969 C 910.183594 418.257812 905.5 425.371094 898.921875 430.511719 C 897.609375 431.542969 896.210938 432.492188 894.742188 433.363281 C 885.972656 438.542969 875.707031 439.984375 865.835938 437.441406 C 850.308594 433.4375 839.488281 420.367188 837.546875 405.355469 Z M 733.460938 347.367188 C 730.710938 345.433594 727.785156 343.699219 724.710938 342.199219 L 753.949219 292.589844 C 742.433594 283.515625 736.695312 268.171875 740.585938 253.085938 C 745.84375 232.726562 766.679688 220.433594 787.039062 225.691406 C 807.410156 230.945312 819.699219 251.78125 814.445312 272.152344 C 812.265625 280.585938 807.417969 287.636719 801.03125 292.628906 C 792.007812 299.683594 779.914062 302.621094 767.984375 299.550781 C 766.152344 299.078125 764.390625 298.476562 762.703125 297.761719 Z M 733.460938 347.367188 " fill-opacity="1" fill-rule="evenodd"/></g></g></g><g transform="matrix(1, 0, 0, 1, 11, 392)"><g clip-path="url(#e5051b9168)"><g fill="#023c40" fill-opacity="1"><g transform="translate(4.13514, 391.082621)"><g><path d="M 284.140625 -133.859375 C 284.140625 -106.359375 278.453125 -82.222656 267.078125 -61.453125 C 255.710938 -40.691406 239.785156 -24.554688 219.296875 -13.046875 C 198.816406 -1.546875 174.828125 4.203125 147.328125 4.203125 C 119.828125 4.203125 95.691406 -1.546875 74.921875 -13.046875 C 54.160156 -24.554688 38.023438 -40.691406 26.515625 -61.453125 C 15.015625 -82.222656 9.265625 -106.359375 9.265625 -133.859375 C 9.265625 -161.640625 15.015625 -185.910156 26.515625 -206.671875 C 38.023438 -227.441406 54.160156 -243.578125 74.921875 -255.078125 C 95.691406 -266.585938 119.828125 -272.34375 147.328125 -272.34375 C 174.828125 -272.34375 198.816406 -266.585938 219.296875 -255.078125 C 239.785156 -243.578125 255.710938 -227.441406 267.078125 -206.671875 C 278.453125 -185.910156 284.140625 -161.640625 284.140625 -133.859375 Z M 147.328125 -38.71875 C 165.003906 -38.71875 180.367188 -42.71875 193.421875 -50.71875 C 206.472656 -58.71875 216.644531 -69.875 223.9375 -84.1875 C 231.238281 -98.5 234.890625 -115.054688 234.890625 -133.859375 C 234.890625 -152.941406 231.238281 -169.640625 223.9375 -183.953125 C 216.644531 -198.265625 206.472656 -209.414062 193.421875 -217.40625 C 180.367188 -225.40625 165.003906 -229.40625 147.328125 -229.40625 C 129.648438 -229.40625 114.144531 -225.40625 100.8125 -217.40625 C 87.476562 -209.414062 77.164062 -198.265625 69.875 -183.953125 C 62.582031 -169.640625 58.9375 -152.941406 58.9375 -133.859375 C 58.9375 -115.054688 62.582031 -98.5 69.875 -84.1875 C 77.164062 -69.875 87.476562 -58.71875 100.8125 -50.71875 C 114.144531 -42.71875 129.648438 -38.71875 147.328125 -38.71875 Z M 147.328125 -38.71875 "/></g></g></g><g fill="#023c40" fill-opacity="1"><g transform="translate(317.681622, 391.082621)"><g><path d="M 128.8125 -218.46875 C 149.570312 -218.46875 167.738281 -213.90625 183.3125 -204.78125 C 198.894531 -195.664062 210.960938 -182.898438 219.515625 -166.484375 C 228.078125 -150.066406 232.359375 -131.050781 232.359375 -109.4375 C 232.359375 -86.988281 228.078125 -67.207031 219.515625 -50.09375 C 210.960938 -32.976562 199.109375 -19.648438 183.953125 -10.109375 C 168.796875 -0.566406 150.972656 4.203125 130.484375 4.203125 C 120.941406 4.203125 110.554688 2.519531 99.328125 -0.84375 C 88.109375 -4.207031 77.867188 -8.976562 68.609375 -15.15625 L 68.609375 49.25 C 68.609375 56.257812 66.148438 61.585938 61.234375 65.234375 C 56.328125 68.890625 50.929688 70.71875 45.046875 70.71875 C 38.867188 70.71875 33.320312 68.890625 28.40625 65.234375 C 23.5 61.585938 21.046875 56.257812 21.046875 49.25 L 21.046875 -192.796875 C 21.046875 -199.523438 23.21875 -204.78125 27.5625 -208.5625 C 31.914062 -212.351562 37.882812 -214.25 45.46875 -214.25 C 58.09375 -214.25 65.523438 -209.34375 67.765625 -199.53125 C 77.585938 -206.539062 87.832031 -211.445312 98.5 -214.25 C 109.164062 -217.0625 119.269531 -218.46875 128.8125 -218.46875 Z M 129.234375 -38.3125 C 145.785156 -38.3125 159.113281 -44.832031 169.21875 -57.875 C 179.320312 -70.925781 184.375 -87.972656 184.375 -109.015625 C 184.375 -128.941406 178.96875 -145.078125 168.15625 -157.421875 C 157.351562 -169.773438 143.113281 -175.953125 125.4375 -175.953125 C 114.21875 -175.953125 103.273438 -173.070312 92.609375 -167.3125 C 81.941406 -161.5625 73.941406 -153.359375 68.609375 -142.703125 L 68.609375 -72.828125 C 73.097656 -61.878906 81.09375 -53.390625 92.59375 -47.359375 C 104.101562 -41.328125 116.316406 -38.3125 129.234375 -38.3125 Z M 129.234375 -38.3125 "/></g></g></g><g fill="#023c40" fill-opacity="1"><g transform="translate(578.619703, 391.082621)"><g><path d="M 115.765625 -39.984375 C 122.210938 -43.640625 128.03125 -44.90625 133.21875 -43.78125 C 138.414062 -42.65625 142.628906 -40.195312 145.859375 -36.40625 C 149.085938 -32.625 150.703125 -28.207031 150.703125 -23.15625 C 150.703125 -19.5 149.578125 -15.847656 147.328125 -12.203125 C 145.078125 -8.554688 141.570312 -5.472656 136.8125 -2.953125 C 130.632812 0.421875 125.019531 2.457031 119.96875 3.15625 C 114.914062 3.851562 109.019531 4.203125 102.28125 4.203125 C 84.039062 4.203125 70.007812 0.414062 60.1875 -7.15625 C 50.375 -14.726562 43.640625 -24.546875 39.984375 -36.609375 C 36.335938 -48.679688 34.515625 -61.453125 34.515625 -74.921875 L 34.515625 -174.265625 L 18.515625 -174.265625 C 10.660156 -174.265625 4.835938 -176.367188 1.046875 -180.578125 C -2.734375 -184.785156 -4.625 -189.273438 -4.625 -194.046875 C -4.625 -199.097656 -2.660156 -203.726562 1.265625 -207.9375 C 5.191406 -212.144531 10.941406 -214.25 18.515625 -214.25 L 34.515625 -214.25 L 34.515625 -250.453125 C 34.515625 -257.753906 36.898438 -263.226562 41.671875 -266.875 C 46.441406 -270.519531 51.914062 -272.34375 58.09375 -272.34375 C 63.976562 -272.34375 69.445312 -270.519531 74.5 -266.875 C 79.550781 -263.226562 82.078125 -257.753906 82.078125 -250.453125 L 82.078125 -214.25 L 114.921875 -214.25 C 122.210938 -214.25 127.820312 -212.144531 131.75 -207.9375 C 135.675781 -203.726562 137.640625 -199.097656 137.640625 -194.046875 C 137.640625 -188.992188 135.675781 -184.429688 131.75 -180.359375 C 127.820312 -176.296875 122.210938 -174.265625 114.921875 -174.265625 L 82.078125 -174.265625 L 82.078125 -74.921875 C 82.078125 -68.753906 82.5 -62.789062 83.34375 -57.03125 C 84.1875 -51.28125 86.082031 -46.507812 89.03125 -42.71875 C 91.976562 -38.9375 96.394531 -37.046875 102.28125 -37.046875 C 104.53125 -37.046875 106.988281 -37.394531 109.65625 -38.09375 C 112.320312 -38.789062 114.359375 -39.421875 115.765625 -39.984375 Z M 115.765625 -39.984375 "/></g></g></g><g fill="#023c40" fill-opacity="1"><g transform="translate(740.653764, 391.082621)"><g><path d="M 63.140625 -245.828125 C 63.140625 -238.804688 60.539062 -233.539062 55.34375 -230.03125 C 50.15625 -226.53125 44.613281 -224.78125 38.71875 -224.78125 C 32.550781 -224.78125 26.941406 -226.53125 21.890625 -230.03125 C 16.835938 -233.539062 14.3125 -238.804688 14.3125 -245.828125 L 14.3125 -251.296875 C 14.3125 -258.597656 16.835938 -263.929688 21.890625 -267.296875 C 26.941406 -270.660156 32.550781 -272.34375 38.71875 -272.34375 C 44.613281 -272.34375 50.15625 -270.660156 55.34375 -267.296875 C 60.539062 -263.929688 63.140625 -258.597656 63.140625 -251.296875 Z M 14.734375 -193.625 C 14.734375 -200.363281 17.328125 -205.484375 22.515625 -208.984375 C 27.710938 -212.492188 33.113281 -214.25 38.71875 -214.25 C 44.613281 -214.25 50.085938 -212.492188 55.140625 -208.984375 C 60.191406 -205.484375 62.71875 -200.503906 62.71875 -194.046875 L 62.71875 -20.625 C 62.71875 -13.613281 60.191406 -8.421875 55.140625 -5.046875 C 50.085938 -1.679688 44.613281 0 38.71875 0 C 33.113281 0 27.710938 -1.679688 22.515625 -5.046875 C 17.328125 -8.421875 14.734375 -13.613281 14.734375 -20.625 Z M 14.734375 -193.625 "/></g></g></g><g fill="#023c40" fill-opacity="1"><g transform="translate(825.669037, 391.082621)"><g><path d="M 141.859375 -218.46875 C 161.503906 -218.46875 178.203125 -214.1875 191.953125 -205.625 C 205.703125 -197.070312 216.222656 -185.21875 223.515625 -170.0625 C 230.816406 -154.90625 234.46875 -137.222656 234.46875 -117.015625 L 234.46875 -21.890625 C 234.46875 -15.429688 232.359375 -10.164062 228.140625 -6.09375 C 223.929688 -2.03125 218.039062 0 210.46875 0 C 203.457031 0 197.703125 -2.03125 193.203125 -6.09375 C 188.710938 -10.164062 186.46875 -15.429688 186.46875 -21.890625 L 186.46875 -117.859375 C 186.46875 -135.253906 182.328125 -149.351562 174.046875 -160.15625 C 165.773438 -170.96875 152.660156 -176.375 134.703125 -176.375 C 129.367188 -176.375 122.984375 -174.898438 115.546875 -171.953125 C 108.109375 -169.003906 100.8125 -164.582031 93.65625 -158.6875 C 86.5 -152.800781 80.601562 -145.363281 75.96875 -136.375 C 71.34375 -127.394531 69.03125 -116.734375 69.03125 -104.390625 L 69.03125 -21.46875 C 69.03125 -7.15625 61.3125 0 45.875 0 C 38.582031 0 32.617188 -1.890625 27.984375 -5.671875 C 23.359375 -9.460938 21.046875 -14.726562 21.046875 -21.46875 L 21.046875 -192.796875 C 21.046875 -199.804688 23.5 -205.132812 28.40625 -208.78125 C 33.320312 -212.425781 38.867188 -214.25 45.046875 -214.25 C 50.929688 -214.25 56.398438 -212.425781 61.453125 -208.78125 C 66.503906 -205.132812 69.03125 -200.082031 69.03125 -193.625 L 69.03125 -190.6875 C 81.101562 -201.90625 93.59375 -209.335938 106.5 -212.984375 C 119.40625 -216.640625 131.191406 -218.46875 141.859375 -218.46875 Z M 141.859375 -218.46875 "/></g></g></g><g fill="#023c40" fill-opacity="1"><g transform="translate(1097.128759, 391.082621)"><g><path d="M 206.6875 -214.25 C 213.976562 -214.25 219.867188 -212.003906 224.359375 -207.515625 C 228.847656 -203.023438 231.09375 -197.414062 231.09375 -190.6875 L 231.09375 -21.46875 C 231.09375 -14.445312 228.492188 -9.113281 223.296875 -5.46875 C 218.109375 -1.820312 212.707031 0 207.09375 0 C 200.925781 0 195.382812 -1.890625 190.46875 -5.671875 C 185.5625 -9.460938 183.109375 -14.867188 183.109375 -21.890625 L 183.109375 -23.578125 C 171.597656 -12.347656 159.671875 -4.910156 147.328125 -1.265625 C 134.984375 2.378906 123.476562 4.203125 112.8125 4.203125 C 83.625 4.203125 60.890625 -4.984375 44.609375 -23.359375 C 28.335938 -41.742188 20.203125 -66.648438 20.203125 -98.078125 L 20.203125 -190.6875 C 20.203125 -197.132812 22.304688 -202.671875 26.515625 -207.296875 C 30.722656 -211.929688 36.617188 -214.25 44.203125 -214.25 C 51.492188 -214.25 57.3125 -211.929688 61.65625 -207.296875 C 66.007812 -202.671875 68.1875 -197.132812 68.1875 -190.6875 L 68.1875 -97.234375 C 68.1875 -78.992188 72.328125 -64.539062 80.609375 -53.875 C 88.890625 -43.21875 102.007812 -37.890625 119.96875 -37.890625 C 125.300781 -37.890625 131.546875 -39.359375 138.703125 -42.296875 C 145.859375 -45.242188 152.800781 -49.664062 159.53125 -55.5625 C 166.269531 -61.457031 171.882812 -68.960938 176.375 -78.078125 C 180.863281 -87.203125 183.109375 -97.9375 183.109375 -110.28125 L 183.109375 -190.6875 C 183.109375 -197.414062 185.070312 -203.023438 189 -207.515625 C 192.925781 -212.003906 198.820312 -214.25 206.6875 -214.25 Z M 206.6875 -214.25 "/></g></g></g><g fill="#023c40" fill-opacity="1"><g transform="translate(1367.325901, 391.082621)"><g><path d="M 30.3125 -45.046875 C 38.445312 -45.046875 44.96875 -42.726562 49.875 -38.09375 C 54.789062 -33.46875 57.25 -27.503906 57.25 -20.203125 C 57.25 -13.191406 54.789062 -7.367188 49.875 -2.734375 C 44.96875 1.890625 38.445312 4.203125 30.3125 4.203125 C 22.445312 4.203125 15.847656 1.890625 10.515625 -2.734375 C 5.191406 -7.367188 2.53125 -13.191406 2.53125 -20.203125 C 2.53125 -27.503906 5.191406 -33.46875 10.515625 -38.09375 C 15.847656 -42.726562 22.445312 -45.046875 30.3125 -45.046875 Z M 30.3125 -45.046875 "/></g></g></g><g fill="#023c40" fill-opacity="1"><g transform="translate(1426.668211, 391.082621)"><g><path d="M 196.15625 -272.34375 C 202.050781 -272.34375 207.59375 -270.660156 212.78125 -267.296875 C 217.976562 -263.929688 220.578125 -258.597656 220.578125 -251.296875 L 220.578125 -21.46875 C 220.578125 -7.15625 212.4375 0 196.15625 0 C 181.5625 0 173.984375 -6.734375 173.421875 -20.203125 C 164.441406 -12.347656 154.335938 -6.382812 143.109375 -2.3125 C 131.890625 1.75 121.226562 3.78125 111.125 3.78125 C 90.082031 3.78125 71.910156 -0.984375 56.609375 -10.515625 C 41.316406 -20.054688 29.601562 -33.382812 21.46875 -50.5 C 13.332031 -67.625 9.265625 -87.269531 9.265625 -109.4375 C 9.265625 -130.769531 13.613281 -149.570312 22.3125 -165.84375 C 31.007812 -182.125 43.144531 -194.960938 58.71875 -204.359375 C 74.289062 -213.765625 92.320312 -218.46875 112.8125 -218.46875 C 122.070312 -218.46875 132.03125 -216.640625 142.6875 -212.984375 C 153.351562 -209.335938 163.316406 -203.867188 172.578125 -196.578125 L 172.578125 -251.296875 C 172.578125 -258.597656 175.03125 -263.929688 179.9375 -267.296875 C 184.851562 -270.660156 190.257812 -272.34375 196.15625 -272.34375 Z M 112.390625 -38.71875 C 126.421875 -38.71875 139.117188 -41.875 150.484375 -48.1875 C 161.847656 -54.507812 169.492188 -63.703125 173.421875 -75.765625 L 173 -140.59375 C 168.226562 -152.101562 160.441406 -160.875 149.640625 -166.90625 C 138.835938 -172.9375 127.679688 -175.953125 116.171875 -175.953125 C 98.492188 -175.953125 84.253906 -169.566406 73.453125 -156.796875 C 62.648438 -144.023438 57.25 -128.097656 57.25 -109.015625 C 57.25 -88.535156 62.300781 -71.695312 72.40625 -58.5 C 82.507812 -45.3125 95.835938 -38.71875 112.390625 -38.71875 Z M 112.390625 -38.71875 "/></g></g></g><g fill="#023c40" fill-opacity="1"><g transform="translate(1686.343617, 391.082621)"><g><path d="M 188.578125 -36.203125 C 193.347656 -30.304688 195.242188 -24.617188 194.265625 -19.140625 C 193.285156 -13.671875 190.617188 -9.113281 186.265625 -5.46875 C 181.910156 -1.820312 176.929688 0 171.328125 0 C 163.742188 0 157.285156 -3.085938 151.953125 -9.265625 L 80.8125 -88.390625 L 68.609375 -77.453125 L 68.609375 -21.46875 C 68.609375 -14.445312 66.007812 -9.113281 60.8125 -5.46875 C 55.625 -1.820312 50.085938 0 44.203125 0 C 38.023438 0 32.550781 -1.820312 27.78125 -5.46875 C 23.007812 -9.113281 20.625 -14.445312 20.625 -21.46875 L 20.625 -250.875 C 20.625 -258.175781 23.007812 -263.578125 27.78125 -267.078125 C 32.550781 -270.585938 38.160156 -272.34375 44.609375 -272.34375 C 51.066406 -272.34375 56.679688 -270.585938 61.453125 -267.078125 C 66.222656 -263.578125 68.609375 -258.175781 68.609375 -250.875 L 68.609375 -134.703125 L 146.484375 -207.515625 C 151.816406 -212.003906 157.710938 -214.25 164.171875 -214.25 C 170.898438 -214.25 176.648438 -212.070312 181.421875 -207.71875 C 186.191406 -203.375 188.578125 -198.398438 188.578125 -192.796875 C 188.578125 -187.460938 185.628906 -181.988281 179.734375 -176.375 L 113.65625 -117.859375 Z M 188.578125 -36.203125 "/></g></g></g></g></g></svg>